<?xml version="1.0" encoding="UTF-8" standalone="no"?>
<!--  Source: CBS (Centraal Bureau voor de Statistiek / Kadaster, Emmen, 2008). Integrated by Michiel1972. -->
<!--  Gemeentenaam: Zoetermeer -->
<!--  Wijknaam: Wijk 06 Oosterheem -->
<!--  Buurtnaam: Oosterheem-Noordoost -->
<!--  Buurtcode: BU06370601 -->
<!--  Inwoneraantal 2008: 14390 -->
<!--  Oppervlakte totaal (ha): 219-->
<!--  Oppervlakte land (ha): 215 -->
  <svg
   xmlns:svg="http://www.w3.org/2000/svg"
   xmlns="http://www.w3.org/2000/svg"
   xmlns:sodipodi="http://sodipodi.sourceforge.net/DTD/sodipodi-0.dtd"
   version="1.0"
   width="300pt"
   height="300pt"
   viewBox="0 0 500 500"
   id="svg2">
  <defs
     id="defs22" />
  <clipPath id="SVG_CP_1">
    <path d="M505,0L0,0L0,505L505,505L505,0z"/>
  </clipPath>
	<g transform="matrix(38.4914762764201,0,0,38.4914762764201,-8016.86325261528,-8113.06097905208)" id="cbs_gemeenten_2009">
		<path clip-path="url(#SVG_CP_1)" fill="#000000" stroke="#000000" stroke-width="0.11" fill-opacity="0.13" stroke-miterlimit="10" stroke-linejoin="round" d="
			M217.35781,213.55124L217.64581,213.78518L217.66381,213.79418L218.49181,214.50499L218.37481,214.50499L218.40181,214.57698
			L218.41081,214.60397L218.66281,215.2698L218.7258,215.44075L218.7348,215.45875L220.2828,216.65544L220.64279,217.01535L219.9408,217.94211
			L219.9228,217.96911L219.8058,218.44598L219.6888,218.67992L218.9688,218.56295L218.61781,218.67992L218.59981,218.69792L217.78081,219.39974
			L217.77181,219.39974L217.44781,219.62468L217.42081,219.63368L216.32282,220.7314L216.23282,220.83037L215.51282,220.83037L
			215.46782,220.83037L214.08183,220.83037L213.97383,220.83037L213.96483,220.83037L213.48783,219.75065L213.43383,219.76864L
			212.53384,219.99359L212.50684,219.97559L212.29084,219.87662L211.85884,218.67093L211.81384,218.56295L210.85985,218.392L209.79785,218.20305
			L209.78885,218.20305L209.55485,218.20305L208.97886,217.39325L208.95186,217.36626L209.55485,217.49223L209.54586,217.44724
			L209.42886,216.77241L212.29084,214.63096L212.32684,214.62196L213.96483,214.27105L213.84783,213.79418L215.39582,213.43427
			L215.39582,213.20033L215.75582,213.43427L215.77382,213.42527L215.98982,213.3173L215.98982,212.95739L216.34982,212.72345L
			217.06081,213.3173L217.35781,213.55124"/>
		<path clip-path="url(#SVG_CP_1)" fill="none" stroke="#000000" stroke-width="0.013" stroke-miterlimit="10" stroke-linejoin="round" d="
			M217.06081,213.3173L217.64581,213.78518L217.66381,213.79418L218.49181,214.50499L218.37481,214.50499L218.40181,214.57698L
			218.41081,214.60397L218.66281,215.2698L218.7258,215.44075L218.7348,215.45875"/>
		<path clip-path="url(#SVG_CP_1)" fill="none" stroke="#000000" stroke-width="0.013" stroke-miterlimit="10" stroke-linejoin="round" d="
			M220.3188,217.43824L219.9408,217.94211L219.9228,217.96911L219.8058,218.44598L219.6888,218.67992L218.9688,218.56295L218.61781,218.67992
			L218.59981,218.69792L218.24881,218.99484"/>
		<path clip-path="url(#SVG_CP_1)" fill="none" stroke="#000000" stroke-width="0.013" stroke-miterlimit="10" stroke-linejoin="round" d="
			M215.96282,220.83037L215.51282,220.83037L215.46782,220.83037L214.08183,220.83037L213.97383,220.83037L213.96483,220.83037
			L213.55983,219.91261"/>
		<path clip-path="url(#SVG_CP_1)" fill="none" stroke="#000000" stroke-width="0.013" stroke-miterlimit="10" stroke-linejoin="round" d="
			M211.64284,218.52696L210.85985,218.392L209.79785,218.20305L209.78885,218.20305L209.55485,218.20305L209.04186,217.48323"/>
		<path clip-path="url(#SVG_CP_1)" fill="none" stroke="#000000" stroke-width="0.013" stroke-miterlimit="10" stroke-linejoin="round" d="
			M210.65285,215.85465L212.29084,214.63096L212.32684,214.62196L213.21783,214.43301"/>
		<path clip-path="url(#SVG_CP_1)" fill="none" stroke="#000000" stroke-width="0.013" stroke-miterlimit="10" stroke-linejoin="round" d="
			M215.39582,213.28131L215.39582,213.20033L215.75582,213.43427L215.77382,213.42527L215.98982,213.3173L215.98982,212.95739L
			216.34982,212.72345L217.06081,213.3173"/>
       </g>
<g transform="matrix(38.4914762764201,0,0,38.4914762764201,-8016.86325261528,-8113.06097905208)" id="wijk_2008_gen">
		<path clip-path="url(#SVG_CP_1)" fill="none" stroke="#000000" stroke-width="0.03" stroke-miterlimit="10" stroke-linecap="round" stroke-linejoin="round" d="
			M216.56582,218.374L216.25082,218.75191L215.80082,218.72491L215.56682,218.54496L215.41382,218.58995L215.21582,218.85988L214.54083,218.7699
			L213.90183,218.72491L214.41483,217.01535L214.49583,216.90738L215.17082,216.68244L215.89082,216.50248L216.00782,216.58346
			L216.64682,217.1953L217.13281,217.58221L216.63782,218.27503L216.56582,218.374"/>
		<path clip-path="url(#SVG_CP_1)" fill="none" stroke="#000000" stroke-width="0.03" stroke-miterlimit="10" stroke-linecap="round" stroke-linejoin="round" d="
			M213.60483,216.64645L214.41483,217.01535L213.90183,218.72491L213.58683,218.66193L213.21783,218.63494L212.65984,218.54496
			L212.23684,217.87913L212.56084,216.84439L212.98384,216.85339L213.08284,216.55647L213.12784,216.45749L213.60483,216.64645
			"/>
		<path clip-path="url(#SVG_CP_1)" fill="none" stroke="#000000" stroke-width="0.03" stroke-miterlimit="10" stroke-linecap="round" stroke-linejoin="round" d="
			M216.62882,214.75693L216.21482,215.81866L215.89082,216.50248L215.17082,216.68244L214.49583,216.90738L214.41483,217.01535
			L213.60483,216.64645L213.12784,216.45749L213.20883,216.4395L213.28083,216.17857L213.19984,216.12458L213.37083,215.6657L214.30683,215.54873
			L214.57683,215.75567L214.81983,215.40476L215.30582,215.18882L215.70182,214.71194L215.96282,214.66695L216.16982,214.46001
			L216.66482,214.478L216.78182,214.58597L216.62882,214.75693"/>
		<path clip-path="url(#SVG_CP_1)" fill="none" stroke="#000000" stroke-width="0.03" stroke-miterlimit="10" stroke-linecap="round" stroke-linejoin="round" d="
			M218.02381,216.39451L217.13281,217.58221L216.64682,217.1953L216.00782,216.58346L215.89082,216.50248L216.21482,215.81866L
			216.62882,214.75693L216.81782,214.75693L216.81782,214.8919L217.60981,215.6387L217.56481,215.72868L218.02381,216.39451"/>
		<path clip-path="url(#SVG_CP_1)" fill="none" stroke="#000000" stroke-width="0.03" stroke-miterlimit="10" stroke-linecap="round" stroke-linejoin="round" d="
			M218.41081,214.60397L218.35681,215.55772L218.66281,215.2698L218.7258,215.44075L218.02381,216.39451L217.56481,215.72868L217.60981,215.6387
			L216.81782,214.8919L216.81782,214.75693L216.62882,214.75693L216.78182,214.58597L217.51081,214.469L218.09581,214.496L218.14081,214.57698
			L218.40181,214.57698L218.41081,214.60397"/>
		<path clip-path="url(#SVG_CP_1)" fill="none" stroke="#000000" stroke-width="0.03" stroke-miterlimit="10" stroke-linecap="round" stroke-linejoin="round" d="
			M213.58683,218.66193L213.90183,218.72491L214.54083,218.7699L215.21582,218.85988L216.07082,219.02184L215.91782,219.19279L
			216.16082,219.52571L215.28782,220.54245L215.45882,220.7134L215.46782,220.83037L214.08183,220.83037L213.97383,220.83037L213.96483,220.83037
			L213.48783,219.75065L213.43383,219.76864L212.53384,219.99359L212.50684,219.97559L212.43484,219.78664L212.96584,219.57969
			L212.72284,219.49871L212.53384,219.1478L212.64184,218.68892L213.17284,218.71591L213.21783,218.63494L213.58683,218.66193"/>
		<path clip-path="url(#SVG_CP_1)" fill="none" stroke="#000000" stroke-width="0.03" stroke-miterlimit="10" stroke-linecap="round" stroke-linejoin="round" d="
			M219.8058,218.44598L219.6888,218.67992L218.9688,218.56295L218.61781,218.67992L218.59981,218.69792L217.84381,218.26603L217.84381,218.14906
			L218.56381,217.2043L218.33881,217.02435L218.50081,216.8174L218.02381,216.39451L218.7258,215.44075L218.7348,215.45875L220.2828,216.65544
			L220.64279,217.01535L219.9408,217.94211L219.9228,217.96911L219.8058,218.44598"/>
		<path clip-path="url(#SVG_CP_1)" fill="none" stroke="#000000" stroke-width="0.03" stroke-miterlimit="10" stroke-linecap="round" stroke-linejoin="round" d="
			M218.56381,217.2043L217.84381,218.14906L217.63681,218.01409L217.01581,218.75191L217.77181,219.39974L217.44781,219.62468L
			217.42081,219.63368L216.32282,220.7314L216.23282,220.83037L215.51282,220.83037L215.46782,220.83037L215.45882,220.7134L215.28782,220.54245
			L216.16082,219.52571L215.91782,219.19279L216.07082,219.02184L215.21582,218.85988L215.41382,218.58995L215.56682,218.54496
			L215.80082,218.72491L216.25082,218.75191L216.56582,218.374L216.63782,218.27503L217.13281,217.58221L218.02381,216.39451L218.50081,216.8174
			L218.33881,217.02435L218.56381,217.2043"/>
		<path clip-path="url(#SVG_CP_1)" fill="none" stroke="#000000" stroke-width="0.03" stroke-miterlimit="10" stroke-linecap="round" stroke-linejoin="round" d="
			M217.78081,219.39974L217.77181,219.39974L217.01581,218.75191L217.63681,218.01409L217.84381,218.14906L217.84381,218.26603
			L218.59981,218.69792L217.78081,219.39974M218.66281,215.2698L218.35681,215.55772L218.41081,214.60397L218.66281,215.2698M217.06081,213.3173
			L217.64581,213.78518L217.66381,213.79418L218.49181,214.50499L218.37481,214.50499L218.40181,214.57698L218.14081,214.57698
			L218.09581,214.496L217.51081,214.469L216.78182,214.58597L216.66482,214.478L216.16982,214.46001L215.96282,214.66695L215.70182,214.71194
			L215.30582,215.18882L214.81983,215.40476L214.57683,215.75567L214.30683,215.54873L213.37083,215.6657L213.19984,216.12458L
			213.28083,216.17857L213.20883,216.4395L213.12784,216.45749L213.08284,216.55647L212.98384,216.85339L212.56084,216.84439L212.23684,217.87913
			L212.65984,218.54496L213.21783,218.63494L213.17284,218.71591L212.64184,218.68892L212.53384,219.1478L212.72284,219.49871L
			212.96584,219.57969L212.43484,219.78664L212.50684,219.97559L212.29084,219.87662L211.85884,218.67093L211.81384,218.56295L
			210.85985,218.392L209.79785,218.20305L209.78885,218.20305L209.55485,218.20305L208.97886,217.39325L208.95186,217.36626L209.55485,217.49223
			L209.54586,217.44724L209.42886,216.77241L212.29084,214.63096L212.32684,214.62196L213.96483,214.27105L213.84783,213.79418
			L215.39582,213.43427L215.39582,213.20033L215.75582,213.43427L215.77382,213.42527L215.98982,213.3173L215.98982,212.95739L
			216.34982,212.72345L217.06081,213.3173"/>
       </g>
<g transform="matrix(38.4914762764201,0,0,38.4914762764201,-8016.86325261528,-8113.06097905208)" id="brt_2008_gen">
		<path clip-path="url(#SVG_CP_1)" fill="none" stroke="#000000" stroke-width="0.029" stroke-miterlimit="10" stroke-linecap="round" stroke-linejoin="round" d="
			M216.56582,218.374L216.25082,218.75191L215.80082,218.72491L215.56682,218.54496L215.41382,218.58995L215.21582,218.85988L214.54083,218.7699
			L215.28782,217.88813L215.35082,217.64519L215.24282,217.42924L215.66582,217.35726L215.66582,217.46524L216.21482,218.05908
			L216.44882,218.26603L216.63782,218.27503L216.56582,218.374"/>
		<path clip-path="url(#SVG_CP_1)" fill="none" stroke="#000000" stroke-width="0.029" stroke-miterlimit="10" stroke-linecap="round" stroke-linejoin="round" d="
			M215.66582,217.35726L215.24282,217.42924L215.17082,217.31227L214.41483,217.01535L214.49583,216.90738L215.17082,216.68244
			L215.89082,216.50248L216.00782,216.58346L215.66582,217.35726"/>
		<path clip-path="url(#SVG_CP_1)" fill="none" stroke="#000000" stroke-width="0.029" stroke-miterlimit="10" stroke-linecap="round" stroke-linejoin="round" d="
			M217.13281,217.58221L216.63782,218.27503L216.44882,218.26603L216.21482,218.05908L215.66582,217.46524L215.66582,217.35726
			L216.00782,216.58346L216.64682,217.1953L217.13281,217.58221"/>
		<path clip-path="url(#SVG_CP_1)" fill="none" stroke="#000000" stroke-width="0.029" stroke-miterlimit="10" stroke-linecap="round" stroke-linejoin="round" d="
			M215.28782,217.88813L214.54083,218.7699L213.90183,218.72491L214.41483,217.01535L215.17082,217.31227L215.24282,217.42924L
			215.35082,217.64519L215.28782,217.88813"/>
		<path clip-path="url(#SVG_CP_1)" fill="none" stroke="#000000" stroke-width="0.029" stroke-miterlimit="10" stroke-linecap="round" stroke-linejoin="round" d="
			M213.60483,216.64645L213.55983,216.88039L213.97383,217.01535L213.87483,217.18631L213.74883,217.16831L213.58683,217.33027
			L213.33483,218.17605L213.58683,218.66193L213.21783,218.63494L212.65984,218.54496L212.23684,217.87913L212.56084,216.84439
			L212.98384,216.85339L213.08284,216.55647L213.12784,216.45749L213.60483,216.64645"/>
		<path clip-path="url(#SVG_CP_1)" fill="none" stroke="#000000" stroke-width="0.029" stroke-miterlimit="10" stroke-linecap="round" stroke-linejoin="round" d="
			M214.41483,217.01535L213.90183,218.72491L213.58683,218.66193L213.33483,218.17605L213.58683,217.33027L213.74883,217.16831
			L213.87483,217.18631L213.97383,217.01535L213.55983,216.88039L213.60483,216.64645L214.41483,217.01535"/>
		<path clip-path="url(#SVG_CP_1)" fill="none" stroke="#000000" stroke-width="0.029" stroke-miterlimit="10" stroke-linecap="round" stroke-linejoin="round" d="
			M214.49583,216.90738L214.41483,217.01535L213.60483,216.64645L213.12784,216.45749L213.20883,216.4395L213.28083,216.17857L
			213.19984,216.12458L213.37083,215.6657L214.30683,215.54873L214.57683,215.75567L215.16182,216.4305L215.17082,216.68244L214.49583,216.90738
			"/>
		<path clip-path="url(#SVG_CP_1)" fill="none" stroke="#000000" stroke-width="0.029" stroke-miterlimit="10" stroke-linecap="round" stroke-linejoin="round" d="
			M215.89082,216.50248L215.17082,216.68244L215.16182,216.4305L214.57683,215.75567L214.81983,215.40476L215.30582,215.18882L
			215.70182,214.71194L215.96282,214.66695L216.16982,214.46001L216.66482,214.478L216.78182,214.58597L216.62882,214.75693L216.21482,215.81866
			L215.89082,216.50248"/>
		<path clip-path="url(#SVG_CP_1)" fill="none" stroke="#000000" stroke-width="0.029" stroke-miterlimit="10" stroke-linecap="round" stroke-linejoin="round" d="
			M217.10581,216.88039L216.64682,217.1953L216.00782,216.58346L215.89082,216.50248L216.21482,215.81866L217.13281,216.0256L217.30381,216.13358
			L217.40281,216.34952L217.32181,216.62845L217.10581,216.88039"/>
		<path clip-path="url(#SVG_CP_1)" fill="none" stroke="#000000" stroke-width="0.029" stroke-miterlimit="10" stroke-linecap="round" stroke-linejoin="round" d="
			M218.02381,216.39451L217.13281,217.58221L216.64682,217.1953L217.10581,216.88039L217.32181,216.62845L217.40281,216.34952L
			217.30381,216.13358L217.13281,216.0256L216.21482,215.81866L216.62882,214.75693L216.81782,214.75693L216.81782,214.8919L217.60981,215.6387
			L217.56481,215.72868L218.02381,216.39451"/>
		<path clip-path="url(#SVG_CP_1)" fill="none" stroke="#000000" stroke-width="0.029" stroke-miterlimit="10" stroke-linecap="round" stroke-linejoin="round" d="
			M217.82581,214.69395L217.67281,214.8649L217.53781,215.43176L217.68181,215.56672L217.60981,215.6387L216.81782,214.8919L216.81782,214.75693
			L216.62882,214.75693L216.78182,214.58597L217.51081,214.469L218.09581,214.496L218.07781,214.67595L217.82581,214.69395"/>
		<path clip-path="url(#SVG_CP_1)" fill="none" stroke="#000000" stroke-width="0.029" stroke-miterlimit="10" stroke-linecap="round" stroke-linejoin="round" d="
			M218.41081,214.60397L218.35681,215.55772L218.66281,215.2698L218.7258,215.44075L218.02381,216.39451L217.56481,215.72868L217.60981,215.6387
			L217.68181,215.56672L217.53781,215.43176L217.67281,214.8649L217.82581,214.69395L218.07781,214.67595L218.09581,214.496L218.14081,214.57698
			L218.40181,214.57698L218.41081,214.60397"/>
		<path clip-path="url(#SVG_CP_1)" fill="none" stroke="#000000" stroke-width="0.029" stroke-miterlimit="10" stroke-linecap="round" stroke-linejoin="round" d="
			M213.58683,218.66193L213.90183,218.72491L214.54083,218.7699L215.21582,218.85988L214.87383,219.30076L214.38783,219.63368L
			213.91083,219.84962L213.82983,219.60669L213.43383,219.76864L212.53384,219.99359L212.50684,219.97559L212.43484,219.78664L
			212.96584,219.57969L212.72284,219.49871L212.53384,219.1478L212.64184,218.68892L213.17284,218.71591L213.21783,218.63494L213.58683,218.66193
			"/>
		<path clip-path="url(#SVG_CP_1)" fill="none" stroke="#000000" stroke-width="0.029" stroke-miterlimit="10" stroke-linecap="round" stroke-linejoin="round" d="
			M216.16082,219.52571L215.28782,220.54245L215.45882,220.7134L215.46782,220.83037L214.08183,220.83037L213.97383,220.83037L
			213.96483,220.83037L213.48783,219.75065L213.43383,219.76864L213.82983,219.60669L213.91083,219.84962L214.38783,219.63368L
			214.87383,219.30076L215.21582,218.85988L216.07082,219.02184L215.91782,219.19279L216.16082,219.52571"/>
		<path clip-path="url(#SVG_CP_1)" fill="none" stroke="#000000" stroke-width="0.029" stroke-miterlimit="10" stroke-linecap="round" stroke-linejoin="round" d="
			M218.56381,217.2043L218.8608,217.43824L219.0138,217.24029L219.9408,217.94211L219.9228,217.96911L219.8058,218.44598L219.6888,218.67992
			L218.9688,218.56295L218.61781,218.67992L218.59981,218.69792L217.84381,218.26603L217.84381,218.14906L218.56381,217.2043"/>
		<path clip-path="url(#SVG_CP_1)" fill="none" stroke="#000000" stroke-width="0.029" stroke-miterlimit="10" stroke-linecap="round" stroke-linejoin="round" d="
			M220.64279,217.01535L219.9408,217.94211L219.0138,217.24029L218.8608,217.43824L218.56381,217.2043L218.33881,217.02435L218.50081,216.8174
			L218.02381,216.39451L218.7258,215.44075L218.7348,215.45875L220.2828,216.65544L220.64279,217.01535"/>
		<path clip-path="url(#SVG_CP_1)" fill="none" stroke="#000000" stroke-width="0.029" stroke-miterlimit="10" stroke-linecap="round" stroke-linejoin="round" d="
			M217.01581,218.75191L217.77181,219.39974L217.44781,219.62468L216.63782,219.20179L216.07082,219.02184L215.21582,218.85988
			L215.41382,218.58995L215.56682,218.54496L215.80082,218.72491L216.25082,218.75191L216.56582,218.374L217.01581,218.75191"/>
		<path clip-path="url(#SVG_CP_1)" fill="none" stroke="#000000" stroke-width="0.029" stroke-miterlimit="10" stroke-linecap="round" stroke-linejoin="round" d="
			M215.51282,220.83037L215.46782,220.83037L215.45882,220.7134L215.28782,220.54245L216.16082,219.52571L215.91782,219.19279L
			216.07082,219.02184L216.63782,219.20179L217.44781,219.62468L217.42081,219.63368L216.32282,220.7314L216.23282,220.83037L215.51282,220.83037
			"/>
		<path clip-path="url(#SVG_CP_1)" fill="none" stroke="#000000" stroke-width="0.029" stroke-miterlimit="10" stroke-linecap="round" stroke-linejoin="round" d="
			M218.56381,217.2043L217.84381,218.14906L217.63681,218.01409L217.13281,217.58221L218.02381,216.39451L218.50081,216.8174L218.33881,217.02435
			L218.56381,217.2043"/>
		<path clip-path="url(#SVG_CP_1)" fill="none" stroke="#000000" stroke-width="0.029" stroke-miterlimit="10" stroke-linecap="round" stroke-linejoin="round" d="
			M217.63681,218.01409L217.01581,218.75191L216.56582,218.374L216.63782,218.27503L217.13281,217.58221L217.63681,218.01409"/>
		<path clip-path="url(#SVG_CP_1)" fill="none" stroke="#000000" stroke-width="0.029" stroke-miterlimit="10" stroke-linecap="round" stroke-linejoin="round" d="
			M213.21783,218.63494L213.17284,218.71591L212.64184,218.68892L212.53384,219.1478L212.72284,219.49871L212.96584,219.57969L
			212.43484,219.78664L212.50684,219.97559L212.29084,219.87662L211.85884,218.67093L211.88584,218.46398L212.65984,218.54496L
			213.21783,218.63494"/>
		<path clip-path="url(#SVG_CP_1)" fill="none" stroke="#000000" stroke-width="0.029" stroke-miterlimit="10" stroke-linecap="round" stroke-linejoin="round" d="
			M213.08284,216.55647L212.98384,216.85339L212.56084,216.84439L212.23684,217.87913L212.65984,218.54496L211.88584,218.46398
			L211.85884,218.67093L211.81384,218.56295L210.85985,218.392L209.79785,218.20305L209.78885,218.20305L209.55485,218.20305L208.97886,217.39325
			L208.95186,217.36626L209.55485,217.49223L209.54586,217.44724L210.99485,217.28528L212.40784,216.56547L213.08284,216.55647
			"/>
		<path clip-path="url(#SVG_CP_1)" fill="none" stroke="#000000" stroke-width="0.029" stroke-miterlimit="10" stroke-linecap="round" stroke-linejoin="round" d="
			M210.99485,217.28528L209.54586,217.44724L209.42886,216.77241L212.29084,214.63096L212.32684,214.62196L212.64184,215.2518L
			213.14584,215.62071L213.37083,215.6657L213.19984,216.12458L213.28083,216.17857L213.20883,216.4395L213.12784,216.45749L213.08284,216.55647
			L212.40784,216.56547L210.99485,217.28528"/>
		<path clip-path="url(#SVG_CP_1)" fill="none" stroke="#000000" stroke-width="0.029" stroke-miterlimit="10" stroke-linecap="round" stroke-linejoin="round" d="
			M215.39582,213.20033L215.75582,213.43427L215.77382,213.42527L216.22382,213.91115L216.25082,214.25306L216.16982,214.46001
			L215.96282,214.66695L215.70182,214.71194L215.30582,215.18882L214.81983,215.40476L214.57683,215.75567L214.30683,215.54873
			L213.37083,215.6657L213.14584,215.62071L212.64184,215.2518L212.32684,214.62196L213.96483,214.27105L213.84783,213.79418L215.39582,213.43427
			L215.39582,213.20033"/>
		<path clip-path="url(#SVG_CP_1)" fill="none" stroke="#000000" stroke-width="0.029" stroke-miterlimit="10" stroke-linecap="round" stroke-linejoin="round" d="
			M218.66281,215.2698L218.35681,215.55772L218.41081,214.60397L218.66281,215.2698M217.66381,213.79418L218.49181,214.50499L218.37481,214.50499
			L218.40181,214.57698L218.14081,214.57698L218.09581,214.496L217.51081,214.469L216.78182,214.58597L216.66482,214.478L216.16982,214.46001
			L216.25082,214.25306L216.22382,213.91115L215.77382,213.42527L215.98982,213.3173L215.98982,212.95739L216.34982,212.72345L
			217.06081,213.3173L217.64581,213.78518L217.66381,213.79418"/>
		<path clip-path="url(#SVG_CP_1)" fill="none" stroke="#000000" stroke-width="0.029" stroke-miterlimit="10" stroke-linecap="round" stroke-linejoin="round" d="
			M217.78081,219.39974L217.77181,219.39974L217.01581,218.75191L217.63681,218.01409L217.84381,218.14906L217.84381,218.26603
			L218.59981,218.69792L217.78081,219.39974"/>
       </g>

</svg>
